<mxfile host="app.diagrams.net"><diagram id="diagram_1" name="Page-1"><mxGraphModel><root><mxCell id="0" /><mxCell id="1" parent="0" /><mxCell id="2" value="Users" style="shape=rectangle" parent="1" vertex="1"><mxGeometry x="100" y="100" width="100" height="50" as="geometry" /></mxCell><mxCell id="3" value="Properties" style="shape=rectangle" parent="1" vertex="1"><mxGeometry x="300" y="100" width="100" height="50" as="geometry" /></mxCell><mxCell id="4" value="Bookings" style="shape=rectangle" parent="1" vertex="1"><mxGeometry x="100" y="300" width="100" height="50" as="geometry" /></mxCell><mxCell id="5" value="Reviews" style="shape=rectangle" parent="1" vertex="1"><mxGeometry x="300" y="300" width="100" height="50" as="geometry" /></mxCell><mxCell id="6" value="Payments" style="shape=rectangle" parent="1" vertex="1"><mxGeometry x="500" y="300" width="100" height="50" as="geometry" /></mxCell><mxCell id="7" value="owns" style="edgeStyle=orthogonalEdgeStyle" parent="1" source="2" target="3" edge="1"><mxGeometry relative="1" as="geometry" /></mxCell><mxCell id="8" value="makes" style="edgeStyle=orthogonalEdgeStyle" parent="1" source="2" target="4" edge="1"><mxGeometry relative="1" as="geometry" /></mxCell><mxCell id="9" value="has" style="edgeStyle=orthogonalEdgeStyle" parent="1" source="3" target="4" edge="1"><mxGeometry relative="1" as="geometry" /></mxCell><mxCell id="10" value="has" style="edgeStyle=orthogonalEdgeStyle" parent="1" source="3" target="5" edge="1"><mxGeometry relative="1" as="geometry" /></mxCell><mxCell id="11" value="leaves" style="edgeStyle=orthogonalEdgeStyle" parent="1" source="2" target="5" edge="1"><mxGeometry relative="1" as="geometry" /></mxCell><mxCell id="12" value="has" style="edgeStyle=orthogonalEdgeStyle" parent="1" source="4" target="6" edge="1"><mxGeometry relative="1" as="geometry" /></mxCell></root></mxGraphModel></diagram></mxfile>